<svg xmlns="http://www.w3.org/2000/svg" width="40"  viewBox="0 0 673.797 708">
<path d="M-465.244-2628.192a329.163,329.163,0,0,1-63.887-20.628,336.475,336.475,0,0,1-57.813-32.637,346.273,346.273,0,0,1-50.37-43.227,353.949,353.949,0,0,1-41.56-52.392,358.577,358.577,0,0,1-31.378-60.132,362.708,362.708,0,0,1-19.832-66.448A370.519,370.519,0,0,1-737-2975a370.519,370.519,0,0,1,6.915-71.343,362.788,362.788,0,0,1,19.832-66.45,358.881,358.881,0,0,1,31.378-60.133,354.087,354.087,0,0,1,41.56-52.391,346.235,346.235,0,0,1,50.37-43.228,336.54,336.54,0,0,1,57.813-32.637,329.226,329.226,0,0,1,63.887-20.627A330.094,330.094,0,0,1-396.652-3329a330.122,330.122,0,0,1,68.593,7.192,329.285,329.285,0,0,1,63.887,20.627,336.47,336.47,0,0,1,57.811,32.637,346.15,346.15,0,0,1,50.372,43.228c.173.179.344.357.515.537l-35.77,37.041c-54.41-58.393-127.011-90.552-204.431-90.552-158.093,0-286.712,135.617-286.712,302.314s128.619,302.313,286.712,302.313c82.418,0,160.973-37.6,215.524-103.146l38.074,36.768c-4.486,5.255-9.166,10.421-13.91,15.356a346.131,346.131,0,0,1-50.372,43.227,336.5,336.5,0,0,1-57.811,32.637,329.241,329.241,0,0,1-63.887,20.628A330.236,330.236,0,0,1-396.652-2621,330.208,330.208,0,0,1-465.244-2628.192Zm17.681-76.512a241.367,241.367,0,0,1-48.326-16.307,251.707,251.707,0,0,1-43.734-25.806,265.37,265.37,0,0,1-38.1-34.177,278.189,278.189,0,0,1-31.437-41.422,288.472,288.472,0,0,1-23.738-47.542,296.5,296.5,0,0,1-15-52.537,305.694,305.694,0,0,1-5.231-56.406,305.691,305.691,0,0,1,5.231-56.407,296.563,296.563,0,0,1,15-52.538,288.4,288.4,0,0,1,23.738-47.542,278.166,278.166,0,0,1,31.437-41.422,265.413,265.413,0,0,1,38.1-34.177,251.787,251.787,0,0,1,43.734-25.8,241.4,241.4,0,0,1,48.326-16.309,239.258,239.258,0,0,1,51.886-5.685,239.279,239.279,0,0,1,51.887,5.685,241.414,241.414,0,0,1,48.327,16.309,251.928,251.928,0,0,1,43.732,25.8,265.551,265.551,0,0,1,38.1,34.177c1.3,1.41,2.6,2.857,3.874,4.3l-27.892,26.01c-41.454-42.224-95.845-65.478-153.155-65.478-122.064,0-221.371,105.432-221.371,235.025s99.307,235.025,221.371,235.025c63.217,0,123.607-28.911,165.686-79.319l23.959,25.693c-4,5.007-8.192,9.9-12.472,14.557a265.443,265.443,0,0,1-38.1,34.177,251.737,251.737,0,0,1-43.732,25.806A241.386,241.386,0,0,1-343.79-2704.7a239.264,239.264,0,0,1-51.887,5.688A239.243,239.243,0,0,1-447.563-2704.7Zm316.817-152.105a41.486,41.486,0,0,1-15.791-17.837q-5.6-11.591-5.67-26.665v-5.168q0-15.432,5.563-27.167a41.415,41.415,0,0,1,15.719-18.016,43.236,43.236,0,0,1,23.22-6.281,43.231,43.231,0,0,1,23.22,6.281,41.411,41.411,0,0,1,15.719,18.016q5.563,11.736,5.563,27.1v4.666q0,15.432-5.455,27.06a41.088,41.088,0,0,1-15.611,17.944,43.184,43.184,0,0,1-23.292,6.316A43.483,43.483,0,0,1-130.746-2856.809Zm6.316-74.9q-5.886,8.433-5.957,24.728v5.1q0,16.007,5.885,24.835t16.94,8.828q10.838,0,16.653-8.506t5.885-24.8v-5.1q0-16.436-5.885-24.978t-16.8-8.542Q-118.543-2940.143-124.43-2931.709ZM-228.363-2859q-9.258-8.433-9.259-23.865h21.677q0,7.68,3.23,11.34t10.193,3.661a12.337,12.337,0,0,0,9.833-4.236q3.661-4.233,3.661-12.058v-72.352H-167.5v72.352a34.6,34.6,0,0,1-4.414,17.621,29.958,29.958,0,0,1-12.453,11.808,38.915,38.915,0,0,1-18.16,4.162Q-219.1-2850.565-228.363-2859Zm-85.989,2.19a41.486,41.486,0,0,1-15.791-17.837q-5.6-11.591-5.67-26.665v-5.168q0-15.432,5.562-27.167a41.422,41.422,0,0,1,15.719-18.016,43.236,43.236,0,0,1,23.22-6.281,43.231,43.231,0,0,1,23.22,6.281,41.411,41.411,0,0,1,15.719,18.016q5.563,11.736,5.563,27.1v4.666q0,15.432-5.455,27.06a41.085,41.085,0,0,1-15.612,17.944,43.179,43.179,0,0,1-23.291,6.316A43.483,43.483,0,0,1-314.352-2856.809Zm6.316-74.9q-5.886,8.433-5.958,24.728v5.1q0,16.007,5.886,24.835t16.94,8.828q10.838,0,16.652-8.506t5.886-24.8v-5.1q0-16.436-5.886-24.978t-16.8-8.542Q-302.15-2940.143-308.036-2931.709Zm-99.053,76.729q-9.9-4.413-15.109-12.094a30.977,30.977,0,0,1-5.2-17.8H-405.8q0,17.3,20.672,17.3,7.68,0,11.986-3.122a10.158,10.158,0,0,0,4.307-8.721q0-6.1-4.307-9.367t-15.5-6.89a109.821,109.821,0,0,1-17.729-7.142q-17.8-9.617-17.8-25.911a25.235,25.235,0,0,1,4.774-15.109,31.135,31.135,0,0,1,13.709-10.373,51.617,51.617,0,0,1,20.062-3.732,46.97,46.97,0,0,1,19.955,4.055,31.78,31.78,0,0,1,13.6,11.449,29.955,29.955,0,0,1,4.845,16.8H-368.76q0-7.178-4.522-11.162t-12.7-3.983q-7.9,0-12.274,3.338a10.527,10.527,0,0,0-4.378,8.792q0,5.1,5.132,8.542t15.109,6.46q18.375,5.527,26.773,13.709a27.3,27.3,0,0,1,8.4,20.385q0,13.566-10.264,21.282t-27.634,7.716A53.362,53.362,0,0,1-407.089-2854.979ZM-100.24-2978v-104.508h21.533V-2978Zm-41.774,0v-28.567l2.153-49.311L-168.071-2978h-14.786l-28.137-77.807,2.154,49.24V-2978h-21.533v-104.508h28.137l26.845,75.8,26.7-75.8h28.28V-2978Zm-154.106,0v-37.9l-34.31-66.61h23.615l21.6,47.086,21.749-47.086h23.543l-34.31,66.61v37.9Zm-63.451,0-41.918-68.763V-2978h-21.533v-104.508h21.533l41.99,68.906v-68.906h21.461V-2978Z" transform="translate(737 3329)"/>
</svg>